<?xml version='1.0' encoding='utf-8'?>
<svg version="1.1" xmlns="http://www.w3.org/2000/svg" width="1821.3333" height="1024" viewBox="0 0 1821.3333 1024"><g><path d="M 0,0 C -1.613,-1.312 -2.528,-3.144 -2.747,-5.493 H 15.128 C 14.964,-3.144 14.103,-1.312 12.545,0 10.988,1.312 8.896,1.968 6.273,1.968 3.703,1.968 1.612,1.312 0,0 m 17.342,9.634 c 3.224,-1.668 5.698,-4.017 7.42,-7.051 1.721,-3.034 2.583,-6.573 2.583,-10.618 0,-1.312 -0.138,-2.925 -0.41,-4.838 H -2.828 c 0.382,-2.078 1.503,-3.758 3.361,-5.042 1.858,-1.285 4.235,-1.927 7.134,-1.927 2.021,0 3.989,0.3 5.903,0.902 1.913,0.601 3.552,1.448 4.92,2.542 l 6.723,-7.215 c -2.296,-2.132 -5.016,-3.772 -8.159,-4.92 -3.143,-1.148 -6.491,-1.722 -10.044,-1.722 -4.701,0 -8.772,0.861 -12.216,2.583 -3.444,1.722 -6.096,4.168 -7.953,7.338 -1.859,3.17 -2.788,6.914 -2.788,11.233 0,4.153 0.914,7.843 2.747,11.069 1.83,3.224 4.386,5.725 7.666,7.502 3.28,1.776 7.078,2.665 11.396,2.665 4.428,0 8.254,-0.834 11.48,-2.501" transform="matrix(1.3333333,0,0,-1.3333333,450.7796,511.61347)" style="fill:#003dff;fill-opacity:1;fill-rule:nonzero;stroke:none" /><path d="m 0,0 c 1.803,1.886 2.706,4.359 2.706,7.42 0,3.061 -0.903,5.534 -2.706,7.42 -1.804,1.886 -4.128,2.829 -6.969,2.829 -2.844,0 -5.153,-0.957 -6.929,-2.87 -1.777,-1.913 -2.665,-4.374 -2.665,-7.379 0,-3.007 0.888,-5.466 2.665,-7.379 1.776,-1.914 4.085,-2.869 6.929,-2.869 2.841,0 5.165,0.942 6.969,2.828 M 15.414,27.672 V -12.832 H 4.264 l -0.82,4.837 c -3.444,-3.771 -7.927,-5.657 -13.447,-5.657 -3.772,0 -7.12,0.888 -10.044,2.665 -2.925,1.776 -5.207,4.264 -6.846,7.461 -1.64,3.198 -2.46,6.846 -2.46,10.946 0,4.099 0.82,7.749 2.46,10.946 1.639,3.198 3.921,5.684 6.846,7.461 2.924,1.776 6.272,2.665 10.044,2.665 2.733,0 5.248,-0.479 7.543,-1.435 2.296,-0.957 4.263,-2.337 5.904,-4.14 l 0.82,4.755 z" transform="matrix(1.3333333,0,0,-1.3333333,532.826,533.5324)" style="fill:#003dff;fill-opacity:1;fill-rule:nonzero;stroke:none" /><path d="m 0,0 c 1.803,1.886 2.706,4.359 2.706,7.42 0,3.061 -0.903,5.534 -2.706,7.42 -1.804,1.886 -4.128,2.829 -6.969,2.829 -2.844,0 -5.153,-0.957 -6.929,-2.87 -1.777,-1.913 -2.665,-4.374 -2.665,-7.379 0,-3.007 0.888,-5.466 2.665,-7.379 1.776,-1.914 4.085,-2.869 6.929,-2.869 2.841,0 5.165,0.942 6.969,2.828 M 15.414,44.562 V -12.832 H 4.264 l -0.82,4.837 c -3.444,-3.771 -7.927,-5.657 -13.447,-5.657 -3.772,0 -7.12,0.888 -10.044,2.665 -2.925,1.776 -5.207,4.264 -6.846,7.461 -1.64,3.198 -2.46,6.846 -2.46,10.946 0,4.099 0.82,7.749 2.46,10.946 1.639,3.198 3.921,5.684 6.846,7.461 2.924,1.776 6.272,2.665 10.044,2.665 4.974,0 9.155,-1.558 12.544,-4.674 v 20.744 z" transform="matrix(1.3333333,0,0,-1.3333333,602.3528,533.5324)" style="fill:#003dff;fill-opacity:1;fill-rule:nonzero;stroke:none" /><path d="m 0,0 h 13.939 l -25.254,-58.05 h -13.692 l 7.871,18.12 L -32.879,0 h 13.857 l 4.673,-12.791 4.428,-13.201 4.756,13.201 z" transform="matrix(1.3333333,0,0,-1.3333333,673.52053,496.63613)" style="fill:#003dff;fill-opacity:1;fill-rule:nonzero;stroke:none" /><path d="m 0,0 c -4.345,1.421 -8.105,3.415 -11.274,5.985 l 6.969,9.757 c 5.084,-3.99 11.014,-5.985 17.792,-5.985 3.389,0 6.081,0.574 8.076,1.722 1.995,1.148 2.993,2.706 2.993,4.674 0,1.857 -0.93,3.306 -2.787,4.345 -1.859,1.038 -4.811,1.776 -8.855,2.213 -7.818,0.874 -13.543,2.706 -17.178,5.494 -3.636,2.788 -5.452,6.777 -5.452,11.971 0,3.498 0.983,6.586 2.951,9.265 1.968,2.677 4.728,4.755 8.282,6.231 3.552,1.476 7.652,2.214 12.298,2.214 3.99,0 7.884,-0.574 11.684,-1.722 3.799,-1.148 7.146,-2.76 10.044,-4.837 L 29.23,41.898 c -4.483,3.116 -9.43,4.674 -14.84,4.674 -3.335,0 -6,-0.548 -7.995,-1.641 -1.996,-1.094 -2.993,-2.57 -2.993,-4.427 0,-1.804 0.862,-3.198 2.583,-4.182 1.722,-0.983 4.604,-1.721 8.65,-2.213 7.761,-0.876 13.556,-2.802 17.383,-5.781 3.825,-2.98 5.739,-7.066 5.739,-12.258 0,-3.607 -1.012,-6.792 -3.034,-9.551 C 32.7,3.758 29.858,1.626 26.196,0.123 22.533,-1.379 18.325,-2.131 13.569,-2.131 8.868,-2.131 4.345,-1.42 0,0" transform="matrix(1.3333333,0,0,-1.3333333,710.85413,549.54827)" style="fill:#003dff;fill-opacity:1;fill-rule:nonzero;stroke:none" /><path d="M 0,0 C -1.613,-1.312 -2.528,-3.144 -2.747,-5.493 H 15.128 C 14.964,-3.144 14.103,-1.312 12.545,0 10.987,1.312 8.896,1.968 6.273,1.968 3.703,1.968 1.612,1.312 0,0 m 17.342,9.634 c 3.224,-1.668 5.698,-4.017 7.42,-7.051 1.721,-3.034 2.583,-6.573 2.583,-10.618 0,-1.312 -0.138,-2.925 -0.41,-4.838 H -2.828 c 0.382,-2.078 1.502,-3.758 3.361,-5.042 1.858,-1.285 4.235,-1.927 7.133,-1.927 2.022,0 3.99,0.3 5.904,0.902 1.913,0.601 3.552,1.448 4.92,2.542 l 6.723,-7.215 c -2.296,-2.132 -5.016,-3.772 -8.159,-4.92 -3.143,-1.148 -6.491,-1.722 -10.044,-1.722 -4.701,0 -8.772,0.861 -12.216,2.583 -3.444,1.722 -6.096,4.168 -7.953,7.338 -1.859,3.17 -2.788,6.914 -2.788,11.233 0,4.153 0.914,7.843 2.747,11.069 1.83,3.224 4.386,5.725 7.666,7.502 3.28,1.776 7.078,2.665 11.396,2.665 4.428,0 8.253,-0.834 11.48,-2.501" transform="matrix(1.3333333,0,0,-1.3333333,789.01787,511.61347)" style="fill:#003dff;fill-opacity:1;fill-rule:nonzero;stroke:none" /><path d="m 0,0 c -3.171,-1.585 -6.752,-2.378 -10.741,-2.378 -4.428,0 -7.926,1.243 -10.495,3.73 -2.57,2.488 -3.853,6.491 -3.853,12.012 v 15.333 h -6.888 v 10.249 h 6.888 v 10.085 l 12.79,1.393 V 38.946 H -2.214 V 28.697 H -12.299 V 13.364 c 0,-1.639 0.41,-2.856 1.23,-3.648 0.82,-0.793 1.94,-1.189 3.362,-1.189 1.584,0 3.142,0.382 4.673,1.148 z" transform="matrix(1.3333333,0,0,-1.3333333,873.68787,548.56427)" style="fill:#003dff;fill-opacity:1;fill-rule:nonzero;stroke:none" /><path d="m 0,0 c 4.153,1.312 7.365,3.526 9.633,6.641 2.268,3.116 3.404,6.859 3.404,11.232 0,3.826 -0.849,7.216 -2.543,10.168 -1.693,2.951 -4.099,5.233 -7.215,6.846 -3.115,1.612 -6.751,2.419 -10.905,2.419 h -27.959 v -0.027 h -8.607 l 8.607,-11.111 0.261,-0.336 0.009,-0.012 h 27.012 c 4.116,0 7.452,-3.336 7.452,-7.451 v -1.302 c 0,-4.115 -3.336,-7.451 -7.452,-7.451 h -14.46 l 8.337,-10.764 14.671,-18.94 h 15.99 z" transform="matrix(1.3333333,0,0,-1.3333333,403.98413,524.1804)" style="fill:#003dff;fill-opacity:1;fill-rule:nonzero;stroke:none" /></g></svg>